<svg width="22" height="22" viewBox="0 0 22 22" fill="none" xmlns="http://www.w3.org/2000/svg">
<path d="M17.6739 16.7011C17.7378 16.765 17.7884 16.8408 17.823 16.9243C17.8576 17.0077 17.8754 17.0972 17.8754 17.1875C17.8754 17.2779 17.8576 17.3673 17.823 17.4508C17.7884 17.5342 17.7378 17.6101 17.6739 17.6739C17.61 17.7378 17.5342 17.7885 17.4507 17.823C17.3673 17.8576 17.2778 17.8754 17.1875 17.8754C17.0972 17.8754 17.0077 17.8576 16.9242 17.823C16.8408 17.7885 16.765 17.7378 16.7011 17.6739L11 11.972L5.29889 17.6739C5.16989 17.8029 4.99492 17.8754 4.81249 17.8754C4.63005 17.8754 4.45508 17.8029 4.32608 17.6739C4.19708 17.5449 4.1246 17.37 4.1246 17.1875C4.1246 17.0051 4.19708 16.8301 4.32608 16.7011L10.028 11L4.32608 5.29892C4.19708 5.16992 4.1246 4.99495 4.1246 4.81252C4.1246 4.63008 4.19708 4.45511 4.32608 4.32611C4.45508 4.19711 4.63005 4.12463 4.81249 4.12463C4.99492 4.12463 5.16989 4.19711 5.29889 4.32611L11 10.0281L16.7011 4.32611C16.8301 4.19711 17.0051 4.12463 17.1875 4.12463C17.3699 4.12463 17.5449 4.19711 17.6739 4.32611C17.8029 4.45511 17.8754 4.63008 17.8754 4.81252C17.8754 4.99495 17.8029 5.16992 17.6739 5.29892L11.9719 11L17.6739 16.7011Z" fill="#ffffff"/>
</svg>
